<?xml version="1.0" encoding="UTF-8" standalone="no"?>
<!-- Created with Inkscape (http://www.inkscape.org/) -->

<svg
   width="210mm"
   height="297mm"
   viewBox="0 0 210 297"
   version="1.1"
   id="svg1"
   xml:space="preserve"
   inkscape:version="1.4 (e7c3feb1, 2024-10-09)"
   sodipodi:docname="drawing.svg"
   xmlns:inkscape="http://www.inkscape.org/namespaces/inkscape"
   xmlns:sodipodi="http://sodipodi.sourceforge.net/DTD/sodipodi-0.dtd"
   xmlns="http://www.w3.org/2000/svg"
   xmlns:svg="http://www.w3.org/2000/svg"><sodipodi:namedview
     id="namedview1"
     pagecolor="#ffffff"
     bordercolor="#000000"
     borderopacity="0.25"
     inkscape:showpageshadow="2"
     inkscape:pageopacity="0.0"
     inkscape:pagecheckerboard="0"
     inkscape:deskcolor="#d1d1d1"
     inkscape:document-units="mm"
     inkscape:zoom="0.30634999"
     inkscape:cx="360.69856"
     inkscape:cy="616.94143"
     inkscape:window-width="1104"
     inkscape:window-height="589"
     inkscape:window-x="8"
     inkscape:window-y="225"
     inkscape:window-maximized="0"
     inkscape:current-layer="layer1" /><defs
     id="defs1"><inkscape:path-effect
       effect="simplify"
       id="path-effect4"
       is_visible="true"
       lpeversion="1.3"
       threshold="5.9304605"
       steps="1"
       smooth_angles="360"
       helper_size="10"
       simplify_individual_paths="false"
       simplify_just_coalesce="false" /><inkscape:path-effect
       effect="simplify"
       id="path-effect3"
       is_visible="true"
       lpeversion="1.3"
       threshold="2.9702303"
       steps="1"
       smooth_angles="360"
       helper_size="10"
       simplify_individual_paths="false"
       simplify_just_coalesce="false" /><inkscape:path-effect
       effect="simplify"
       id="path-effect2"
       is_visible="true"
       lpeversion="1.3"
       threshold="66.779638"
       steps="30.657895"
       smooth_angles="360"
       helper_size="10"
       simplify_individual_paths="false"
       simplify_just_coalesce="false" /><inkscape:path-effect
       effect="simplify"
       id="path-effect1"
       is_visible="true"
       lpeversion="1.3"
       threshold="6.5882895"
       steps="1"
       smooth_angles="360"
       helper_size="10"
       simplify_individual_paths="false"
       simplify_just_coalesce="false" /></defs><g
     inkscape:label="Layer 1"
     inkscape:groupmode="layer"
     id="layer1"><path
       style="fill:#000000;stroke-width:0.030613"
       d="m 36.907843,73.877807 c 0.775501,-0.270271 1.849767,-0.454466 2.100553,-1.34908 0.270241,-0.964016 -0.147183,-1.926838 -0.191386,-2.896157 -0.04935,-1.08211 -0.09083,-2.355339 0.692585,-3.187022 0.502677,-0.533647 1.271612,-0.620954 1.937092,-0.833937 4.991616,-1.597532 10.044582,-3.135564 14.672822,-5.662087 1.390493,-0.759059 2.711588,-1.628649 4.111233,-2.376606 1.884208,-1.006902 3.927652,-1.76541 5.64406,-3.03911 0.570686,-0.42349 -0.359126,-1.303108 0.20291,-1.685896 0.591733,-0.403014 1.343887,-0.119591 1.979292,0.01543 0.758863,0.161259 1.578333,0.58503 2.328238,0.276484 0.775987,-0.319278 -0.135797,-1.249916 0.276261,-1.705224 0.658253,-0.727343 1.734828,-0.730862 2.643182,-0.750465 1.796908,-0.03878 3.616313,0.285775 5.395702,-0.06078 0.617201,-0.120208 1.740756,-0.581926 1.313159,-1.329143 -0.393243,-0.687182 0.219732,-1.193949 0.95386,-1.16782 1.133337,0.04034 2.283515,0.826089 3.362319,0.432863 0.593091,-0.216182 1.116688,-0.599319 1.708925,-0.838741 2.744217,-1.109401 5.730696,-1.493309 8.668957,-1.551799 3.304849,-0.06579 6.663403,0.193463 9.824473,1.217359 0.84858,0.274862 1.5464,0.95806 2.41976,1.118745 1.03216,0.189904 2.07927,-0.600128 3.07193,-0.247242 0.73724,0.262084 -0.11608,1.187605 0.23386,1.607519 0.51082,0.612973 1.44784,0.208974 2.06345,0.002 0.50623,-0.17019 1.92196,-0.289406 1.54283,0.502019 -0.26574,0.554738 -0.21256,1.323005 0.64403,1.276185 0.86683,-0.04738 1.77936,-0.774065 2.57982,-0.365855 0.6757,0.344585 -0.25201,1.271189 0.20714,1.653507 0.58628,0.488182 1.44211,0.184262 2.09092,0.0093 0.64401,-0.173703 1.25001,-0.04053 1.87766,0.312682 0.42775,0.240719 0.33504,1.206833 0.74812,1.202651 0.95399,-0.0097 1.90054,-0.225828 2.85283,-0.170197 0.58729,0.03431 1.79145,-0.370902 1.82492,0.29524 0.0273,0.542736 -0.50357,1.597793 0.43078,1.582223 0.63723,-0.01062 1.27939,-0.5759 1.91189,-0.183792 0.97062,0.601714 1.6148,1.583475 2.04942,2.616105 0.27727,0.658787 1.06497,0.761519 1.66206,0.984765 0.68511,0.256157 1.60252,0.238798 2.03903,0.842824 0.65728,0.909523 0.31244,2.384168 1.2194,3.056857 0.51005,0.378298 1.09994,-0.06567 1.60451,-0.230864 0.77946,-0.2552 0.70856,0.625983 0.65187,1.194739 -0.0668,0.670038 0.2383,1.325555 0.58214,1.877692 0.16967,0.272443 0.55738,1.282974 0.60724,0.993651 0.0911,-0.528822 -0.31627,-1.821855 0.26074,-1.653765 0.59117,0.172215 0.99271,0.790171 1.21434,1.338624 0.32745,0.810298 0.0118,2.404501 0.91013,2.467525 0.45356,0.03182 1.61823,-0.370684 1.15887,0.481849 -0.23924,0.444012 -0.17131,1.377932 0.53456,0.962177 0.68039,-0.400752 0.86616,0.536742 1.09311,0.973928 0.6088,1.172827 0.74211,2.75881 1.82143,3.521144 0.41469,0.292902 0.94973,-0.42232 1.33582,0.317004 0.72586,1.389933 1.07396,3.048756 2.16177,4.178058 0.79335,0.823612 1.89099,1.252913 2.86003,1.829111 0.62955,0.374331 1.57174,0.528138 1.83975,1.223012 0.44431,1.151949 0.82433,2.366396 0.83788,3.59683 0.007,0.6697 0.33225,0.74481 1.12051,0.757464 0.61619,0.0099 0.74268,0.859742 0.98699,1.330818 0.56151,1.082655 0.61291,2.661861 1.68152,3.249607 0.45624,0.250935 1.02779,-0.422814 1.39778,0.397687 0.78832,1.748237 1.06838,3.700039 1.96971,5.39485 0.5346,1.005215 2.19446,0.777017 2.54629,1.841523 0.29871,0.90379 -0.51873,1.82677 -0.16905,2.71212 0.265,0.67099 0.98886,-0.36467 1.3658,0.35543 0.74533,1.42387 1.21423,3.0254 2.21616,4.28194 0.66928,0.83936 2.02599,0.77424 2.52523,1.81149 0.47865,0.99447 0.69809,2.03592 1.28016,3.05001 0.38613,0.6727 0.86763,0.27994 0.85839,-0.4049 -0.004,-0.29569 -0.0872,-1.39405 0.25601,-0.65138 0.59587,1.28953 0.85308,2.7133 1.4684,3.99495 0.21671,0.45138 0.48919,1.64633 1.02403,1.25203 0.67041,-0.49423 0.9148,0.28469 1.05837,0.85792 0.29248,1.16782 0.13305,2.52551 0.81965,3.51965 0.592,0.85715 2.08693,0.68481 2.44101,1.68108 0.48831,1.37395 0.46058,2.89399 1.02017,4.24047 0.26741,0.64342 1.15884,-0.44814 1.35243,0.34765 0.21568,0.88654 -0.53087,1.77106 -0.19834,2.63406 0.25949,0.67343 1.10499,-0.41647 1.35972,0.35684 0.44612,1.35436 0.43485,2.83624 0.98359,4.15321 0.26817,0.64362 1.21326,-0.46919 1.35484,0.37679 0.22613,1.35121 -0.42848,2.71496 -0.16815,4.05363 0.16777,0.86275 1.23941,1.16909 1.31232,2.10391 0.13323,1.7082 -0.29342,3.3809 -0.28688,5.10057 0.003,0.70402 0.61864,0.26968 1.09887,0.37992 0.6822,0.15661 0.35926,1.11254 0.25947,1.59768 -0.0998,0.48515 -0.34402,1.95228 0.25947,1.59769 0.52593,-0.30902 0.93674,-0.24892 0.94665,0.54051 0.0829,6.59859 -0.0614,13.1978 -0.0364,19.79649 0.0191,5.03912 -0.83688,10.15257 0.0249,15.1177 0.15337,0.88368 -0.86938,0.0228 -1.13923,0.35217 -0.73077,0.8921 -0.34771,2.42359 -1.27476,3.11117 -0.51005,0.3783 -1.09805,-0.0716 -1.60453,-0.23086 -0.70361,-0.22123 -0.94858,0.64123 -1.11543,1.14803 -0.23429,0.7117 -0.1526,1.71387 -0.82303,2.11304 -1.02417,0.60978 -2.39448,0.53534 -3.29946,1.31106 -0.5304,0.45465 0.42265,1.37708 -0.20978,1.70066 -0.67318,0.34443 -1.33738,-0.57731 -1.98553,-0.28247 -0.71807,0.32666 0.16092,1.21964 -0.23546,1.67218 -0.43554,0.49725 -1.11031,0.13801 -1.59349,-0.0557 -0.51419,-0.20612 -0.94312,0.18892 -1.34423,0.44516 -2.1755,1.38973 -4.12627,3.21504 -6.52032,4.17958 -1.14163,0.45995 -2.4087,0.37723 -3.6124,0.51359 -1.0421,0.11805 -2.19625,0.1126 -3.08625,0.74135 -0.59359,0.41934 0.30015,1.2865 -0.16499,1.66778 -0.61734,0.50603 -1.51631,0.16104 -2.15579,-0.10165 -0.5214,-0.21418 -1.84203,-0.13261 -1.39004,0.63782 0.32093,0.54703 0.0904,1.30325 -0.70507,1.11156 -0.50032,-0.12056 -1.23507,-0.70805 -1.57837,-0.14938 -0.31282,0.50906 0.52918,1.47147 -0.20714,1.65352 -1.01228,0.25027 -2.01339,-0.65399 -2.99652,-0.33952 -0.7617,0.24365 0.0361,1.1452 -0.25148,1.61157 -0.35547,0.5765 -1.09556,0.24927 -1.55592,0.0371 -0.62348,-0.2874 -1.2049,0.22121 -1.40099,0.78327 -0.24857,0.71252 -0.96581,0.94714 -1.69742,0.8695 -1.02009,-0.10825 -2.04033,-0.64515 -3.05611,-0.39895 -0.65895,0.15972 -0.71912,1.00617 -1.10954,1.4676 -0.42456,0.50178 -1.21914,0.34517 -1.81029,0.30726 -1.70883,-0.10958 -3.41047,-0.26022 -5.13761,-0.26225 -0.85689,-0.001 -0.50105,0.85207 -0.51878,1.42928 -0.021,0.68498 -0.89345,0.83058 -1.43289,0.89732 -2.18443,0.27027 -4.38822,-0.0187 -6.56754,-0.21062 -1.29397,-0.11393 -2.58691,-0.44291 -3.88362,-0.34549 -0.66891,0.0503 -1.39718,0.58175 -2.01743,0.15539 -0.59799,-0.41106 0.22925,-1.21023 -0.16603,-1.66151 -0.43554,-0.49724 -1.11001,-0.13724 -1.5935,0.0557 -0.66552,0.26556 -1.19822,-0.36338 -1.3844,-0.91545 -0.26161,-0.77577 -1.0841,-0.73453 -1.79338,-0.65474 -0.70143,0.0789 -1.65108,0.64633 -2.16826,0.0758 -0.43533,-0.48024 0.45059,-1.35108 -0.16616,-1.66665 -0.67318,-0.34445 -1.37689,0.65204 -1.98552,0.28246 -0.56193,-0.34122 -0.67539,-1.08335 -0.81825,-1.67218 -0.18272,-0.75306 -0.44495,-1.5735 -1.18719,-1.98602 -0.60008,-0.33352 -1.554,-0.38663 -1.7697,-1.08183 -0.16749,-0.53982 0.37171,-1.14904 -0.20413,-1.64591 -1.07924,-0.93123 -2.43825,-1.60717 -3.2512,-2.77801 -0.32703,-0.471 0.43562,-1.97711 -0.25944,-1.59769 -0.47697,0.26037 -0.91594,0.21864 -1.18042,-0.39122 -0.3616,-0.83382 -0.0486,-2.30216 -0.94717,-2.56047 -0.43913,-0.12623 -0.92303,0.42148 -1.28033,-0.26266 -0.7259,-1.38992 -0.8589,-3.30554 -2.161707,-4.17809 -0.408891,-0.27385 -1.222764,0.50738 -1.315334,-0.38869 -0.08613,-0.83368 0.572042,-1.66846 0.233937,-2.46573 -0.283325,-0.6681 -1.02244,0.38364 -1.403316,-0.37336 -0.703123,-1.39748 -0.993066,-2.95695 -1.300753,-4.47806 -0.740349,-3.66004 -1.941058,-7.31554 -1.832884,-11.04647 0.01691,-0.58325 -0.277837,-0.8199 -0.959596,-0.66423 -0.742729,0.16958 -0.590087,-0.89864 -0.549648,-1.3667 0.08406,-0.9729 0.406371,-1.94441 0.253258,-2.92418 -0.135648,-0.868 -1.089462,0.24809 -1.366741,-0.38851 -0.398909,-0.91586 -0.200468,-1.95542 -0.108753,-2.91384 0.133824,-1.39847 0.741796,-2.87616 0.261162,-4.21454 -0.691272,-1.92493 -1.788838,-3.73923 -2.134955,-5.75778 -0.114437,-0.6674 -0.660419,-0.25921 -1.175454,-0.37746 -0.682175,-0.15664 -0.359005,-1.11253 -0.259397,-1.59769 0.101956,-0.49659 0.373551,-1.92631 -0.249215,-1.61593 -0.592469,0.29528 -1.12777,0.0711 -1.617546,-0.33914 -0.389438,-0.32623 -1.705216,-0.9897 -1.211279,-1.02567 0.484287,-0.0353 1.636453,0.13304 1.257865,-0.7074 -0.298527,-0.66271 -0.837352,-1.17711 -1.513669,-1.4855 -0.568187,-0.25908 -1.405404,-0.49643 -1.478963,-1.20846 -0.08613,-0.83368 0.664045,-1.71408 0.233937,-2.46573 -0.545701,-0.95364 -2.15593,-0.73974 -2.500725,-1.78295 -0.298715,-0.90378 0.485437,-1.81432 0.169054,-2.71211 -0.240004,-0.68104 -1.471633,0.45239 -1.328787,-0.38145 0.102497,-0.59832 0.236612,-1.1301 -0.3683,-1.65008 -1.014178,-0.8718 -2.288088,-1.50732 -3.050796,-2.60583 -0.327025,-0.471 0.426405,-1.99354 -0.259442,-1.59769 -0.416811,0.24057 -1.253988,0.2806 -0.981159,-0.41217 0.257775,-0.65455 0.0049,-1.29524 -0.280521,-1.88774 -0.251946,-0.523 -0.623106,-2.14241 -0.774432,-1.58539 -0.143088,0.52669 0.374366,1.44008 -0.160697,1.653 -0.569225,0.22652 -1.063055,-0.60525 -1.276175,-1.06542 -0.397453,-0.85818 -0.204437,-2.07802 -0.984388,-2.65651 -0.510048,-0.3783 -1.098036,0.0716 -1.604515,0.23086 -0.703592,0.22121 -0.948661,-0.64123 -1.115559,-1.14803 -0.234363,-0.71166 -0.152508,-1.71393 -0.82294,-2.11305 -1.024201,-0.60972 -2.395255,-0.53444 -3.299478,-1.31106 -0.543604,-0.46689 0.447698,-1.42755 -0.27095,-1.74564 -0.726829,-0.32171 -1.522681,0.0227 -2.250829,0.17703 -0.668943,0.1418 -1.45147,0.52018 -2.068699,0.13025 -0.644561,-0.4072 0.323785,-1.33865 -0.221798,-1.70753 -0.513898,-0.34746 -1.095818,0.0766 -1.605275,0.22993 -0.826305,0.24871 -0.694783,-0.66813 -0.610078,-1.23988 0.128606,-0.86807 -1.014299,-0.5787 -1.542831,-0.502 -0.642723,0.0933 -1.845929,0.76567 -2.063433,-0.002 -0.156914,-0.55383 0.538366,-1.53684 -0.349385,-1.67303 -1.055151,-0.16186 -2.092236,0.18875 -3.084946,0.49995 -0.590717,0.18519 -1.625013,-0.16364 -1.212053,-0.89615 0.377032,-0.66879 -0.163153,-1.08692 -0.871634,-1.10723 -1.505495,-0.0432 -2.999023,0.1874 -4.495989,0.30849 -1.203945,0.0974 -2.453865,0.43332 -3.632156,0.11003 -0.777555,-0.21334 0.04961,-1.14947 -0.259347,-1.59483 -0.390308,-0.56262 -1.17999,-0.33753 -1.742466,-0.22719 -0.847309,0.16623 -1.70654,0.60823 -2.571512,0.40186 -0.873692,-0.20844 -0.01032,-1.20779 -0.349361,-1.67302 -0.528254,-0.72488 -1.527881,-0.77674 -2.349973,-0.81275 -1.908741,-0.0836 -3.840841,0.29849 -5.731251,-0.0696 -0.617203,-0.12019 -1.764395,-0.59603 -1.313089,-1.32914 0.364047,-0.59136 -0.08083,-1.20052 -0.809011,-0.98048 -0.475484,0.14368 -1.351226,0.70311 -1.539566,0.053 -0.159886,-0.55188 0.386985,-1.18675 -0.201383,-1.67596 -0.665172,-0.55306 -1.882961,-0.51607 -2.172558,-1.3919 -0.298841,-0.90378 0.643827,-1.88705 0.169082,-2.71212 -0.534012,-0.92808 -2.159616,-0.69653 -2.456178,-1.706618 -0.266123,-0.906421 -0.171992,-1.875705 -0.13038,-2.806785 0.07292,-1.631613 0.150718,-3.258087 0.1113,-4.89781 -0.02586,-1.07566 -0.35064,-2.304498 0.327683,-3.251145 0.522706,-0.729472 1.50015,-0.997013 2.030429,-1.697089 0.92445,-1.220462 1.526147,-2.659617 2.451863,-3.875384 1.442304,-1.894216 3.665266,-2.852799 5.566254,-4.193495 0.605704,-0.42718 -0.244208,-1.249258 0.175428,-1.687654 0.453392,-0.47366 1.105645,-0.05422 1.578242,0.149385 0.751545,0.32378 0.915885,-0.51334 0.705067,-1.111566 -0.267201,-0.758219 0.683197,-0.843317 1.164897,-0.531849 0.507095,0.327889 1.188751,0.321058 1.415993,-0.350331 0.185204,-0.547188 0.797187,-1.139109 1.125375,-0.250762 0.302634,0.819175 0.799224,-0.364698 0.955915,-0.702054 0.03572,-0.07691 0.07072,-0.154158 0.105167,-0.231646 z"
       id="path4"
       sodipodi:nodetypes="csssssssssssssssssssssssssscsssssssssssssssssssssssssssssssssssssssssssssssssssssssssssssssssssssssssssssssssssssssssssssssssssssscsssssssssssssssssssssssssssssssssssc"
       inkscape:path-effect="#path-effect1"
       inkscape:original-d="m 36.907843,73.877807 c 1.554509,-0.499452 2.491606,-0.780265 2.103027,-2.778063 -0.388771,-1.997809 -0.385741,-4.583592 1.168578,-5.083045 7.902959,-2.539232 12.449517,-3.723699 18.36907,-7.527594 0.841134,-0.540592 7.152674,-3.676305 7.449646,-4.057797 0.274637,-0.353155 -0.274826,-1.14519 0,-1.498345 0.777161,-0.998905 3.885991,0.998906 4.663339,0 0.274827,-0.353169 -0.274826,-1.145189 0,-1.498358 1.367696,-1.757905 7.860941,0.385303 9.32668,-1.49836 0.274826,-0.353169 -0.274825,-1.145189 0,-1.498358 0.739495,-0.950422 3.692743,0.623756 4.663342,0 4.737154,-3.044141 17.413795,-3.044141 22.150955,0 0.70391,0.452335 2.95854,-0.692636 3.49742,0 0.27482,0.353169 -0.27484,1.145189 0,1.498358 0.58295,0.74918 2.91463,-0.749179 3.49758,0 0.27484,0.35317 -0.27482,1.14519 0,1.49836 0.58297,0.749179 2.91464,-0.74918 3.49742,0 0.27483,0.353169 -0.27463,1.145189 0,1.498358 0.53905,0.692622 2.7937,-0.452335 3.4976,0 2.88132,1.851515 -0.40239,1.498345 2.33167,1.498345 0.48001,0 3.18889,-0.396621 3.4976,0 0.27463,0.35317 -0.27483,1.145189 0,1.498359 0.54946,0.706324 1.63647,-0.44672 2.33167,0 1.70026,1.092617 1.86492,2.396964 2.33167,2.996718 0.38858,0.499438 3.10882,0.998891 3.49742,1.498344 0.58296,0.749179 0.58296,2.247538 1.16593,2.996718 0.54946,0.706324 1.782,-0.706339 2.33166,0 0.27482,0.353154 -0.17414,1.051623 0,1.498358 2.42592,6.235784 -0.0814,-1.601801 2.33166,1.498345 0.58278,0.74918 0.58278,2.247538 1.16575,2.996718 0.27483,0.353169 0.89111,-0.353169 1.16593,0 0.27482,0.353169 -0.27482,1.145186 0,1.49834 0.27482,0.353171 0.89091,-0.353154 1.16573,0 0.0624,0.08117 2.26864,4.413877 2.33168,4.495078 0.27482,0.353155 0.89109,-0.353169 1.16592,0 0.0624,0.08117 2.26846,4.413876 2.33167,4.495062 0.72266,0.928746 4.10366,2.277461 4.66335,2.996703 0.38859,0.499453 0.77717,3.995624 1.16574,4.495077 0.27482,0.353155 0.8911,-0.353169 1.16593,0 0.0624,0.08117 2.26845,4.413861 2.33166,4.495062 0.27483,0.353169 0.89111,-0.35317 1.16593,0 0.6757,0.86845 1.65597,5.124971 2.33168,5.993421 0.58277,0.749179 1.7487,0.749179 2.33166,1.498344 0.54946,0.706335 -0.54965,2.290375 0,2.996715 0.27464,0.35317 0.89091,-0.35317 1.16575,0 0.0624,0.0812 2.26845,4.41388 2.33167,4.49507 0.58296,0.74918 1.74871,0.74918 2.33167,1.49836 0.58297,0.74917 0.58297,2.24752 1.16593,2.9967 2.41211,3.10016 -0.0947,-4.73743 2.33167,1.49836 0.48018,1.23449 0.4728,2.10619 1.16574,2.99671 0.27482,0.35315 0.8911,-0.35317 1.16593,0 0.38858,0.49945 0.77716,3.99561 1.16573,4.49506 0.58297,0.74919 1.7489,0.74919 2.33169,1.49836 0.38876,0.49946 0.77735,3.99561 1.16592,4.49507 0.27483,0.35316 0.8911,-0.35317 1.16574,0 0.54965,0.70632 -0.54946,2.29038 0,2.9967 0.27482,0.35318 0.8911,-0.35317 1.16592,0 0.38858,0.49945 0.77716,3.99563 1.16574,4.49506 0.27483,0.35317 0.8911,-0.35315 1.16592,0 0.53888,0.69264 -0.35204,3.5904 0,4.49508 0.2457,0.63176 0.92008,0.86659 1.16576,1.49835 0.48548,1.24751 -0.7395,5.04299 0,5.99341 0.27482,0.35318 0.89111,-0.35315 1.16593,0 0.54965,0.70634 -0.54966,2.29038 0,2.99672 0.27482,0.35317 0.8911,-0.35316 1.16573,0 0.1552,0.20052 0,17.58788 0,19.47861 0,1.59246 0.12495,16.3212 0,16.48191 -0.27463,0.35317 -0.89091,-0.35316 -1.16573,0 -0.58297,0.74917 -0.58297,2.24754 -1.16593,2.99671 -0.54947,0.70632 -1.78203,-0.70632 -2.33168,0 -0.58277,0.74918 -0.58277,2.24753 -1.16574,2.9967 -0.38857,0.49946 -3.10882,0.99891 -3.49758,1.49836 -0.27465,0.35317 0.27482,1.14519 0,1.49837 -0.54949,0.70632 -1.78203,-0.70635 -2.33169,0 -0.27464,0.35316 0.27483,1.14518 0,1.49835 -0.54946,0.70633 -1.63646,-0.44673 -2.33166,0 -3.00946,1.93394 -3.98555,2.56113 -6.99501,4.49506 -1.29748,0.83378 -5.98939,0.20596 -6.99501,1.49836 -0.27483,0.35316 0.27483,1.1452 0,1.49835 -0.58297,0.74918 -2.91464,-0.74918 -3.49761,0 -0.27462,0.35317 0.27484,1.14519 0,1.49835 -0.54946,0.70634 -1.782,-0.70633 -2.33166,0 -0.27464,0.35318 0.27482,1.1452 0,1.49837 -0.58278,0.74917 -2.91444,-0.74918 -3.49741,0 -0.27484,0.35316 0.27482,1.14518 0,1.49835 -0.54966,0.70633 -1.63646,-0.44673 -2.33168,0 -0.49154,0.31588 -0.67437,1.18248 -1.16592,1.49835 -0.97059,0.62376 -3.92384,-0.95042 -4.66335,0 -1.08568,1.39553 0.0909,1.49836 -2.33166,1.49836 -0.91287,0 -5.24744,-0.74764 -5.82907,0 -0.27484,0.35316 0.27482,1.14518 0,1.49836 -1.18164,1.51848 -9.80196,0 -11.65854,0 -0.77717,0 -1.78202,0.70632 -2.33168,0 -0.27462,-0.35318 0.27484,-1.1452 0,-1.49836 -0.54947,-0.70632 -1.63647,0.44672 -2.33167,0 -0.49155,-0.31589 -0.67419,-1.18247 -1.16574,-1.49836 -0.70391,-0.45233 -2.95855,0.69264 -3.49759,0 -0.27465,-0.35316 0.27482,-1.14519 0,-1.49835 -0.54948,-0.70634 -1.78203,0.70633 -2.33168,0 -0.58277,-0.74918 -0.58277,-2.24753 -1.16574,-2.99672 -0.58297,-0.74917 -1.74871,-0.74917 -2.33167,-1.49835 -0.27482,-0.35315 0.27483,-1.14519 0,-1.49835 -0.0624,-0.0812 -3.43438,-2.91553 -3.4976,-2.99671 -0.27483,-0.35318 0.27482,-1.1452 0,-1.49836 -0.27483,-0.35316 -0.89091,0.35316 -1.16574,0 -0.58296,-0.74918 -0.58296,-2.24753 -1.16593,-2.9967 -0.27482,-0.35318 -0.89111,0.35316 -1.16574,0 -0.0625,-0.0811 -2.268637,-4.41388 -2.331657,-4.49507 -0.27484,-0.35316 -0.89111,0.35316 -1.16594,0 -0.549464,-0.70634 0.54965,-2.29038 0,-2.99672 -0.27482,-0.35317 -0.891098,0.35318 -1.165737,0 -1.641584,-2.10972 -2.994695,-15.83569 -3.497598,-16.4819 -0.274833,-0.35317 -0.891106,0.35316 -1.165745,0 -0.582958,-0.74918 0.582775,-3.74588 0,-4.49506 -0.274822,-0.35317 -0.891106,0.35316 -1.165927,0 -0.930478,-1.19593 0.611547,-5.91979 0,-7.49178 -0.458419,-1.17833 -1.795647,-5.30454 -2.331672,-5.99342 -0.274821,-0.35316 -0.891106,0.35316 -1.165927,0 -0.549461,-0.70633 0.549654,-2.29039 0,-2.99671 -0.274639,-0.35316 -0.818236,0.22335 -1.165745,0 -4.851853,-3.11789 1.24638,0.10342 -1.165927,-2.99672 -0.582776,-0.74917 -1.748704,-0.74917 -2.331669,-1.49834 -0.549463,-0.70634 0.549651,-2.29038 0,-2.99671 -0.582775,-0.74919 -1.748705,-0.74919 -2.331672,-1.49836 -0.549463,-0.70634 0.549655,-2.29038 0,-2.9967 -0.274826,-0.35318 -0.890915,0.35316 -1.165741,0 -0.274825,-0.35318 0.274826,-1.1452 0,-1.49837 -0.06246,-0.0812 -3.43438,-2.91551 -3.497598,-2.9967 -0.274827,-0.35317 0.274826,-1.14519 0,-1.49836 -0.274827,-0.35317 -0.890915,0.35317 -1.165741,0 -0.274827,-0.35317 0.174132,-1.05164 0,-1.49836 -2.426117,-6.23579 0.08139,1.6018 -2.33167,-1.49836 -0.582965,-0.74917 -0.582965,-2.24752 -1.165931,-2.9967 -0.549463,-0.70633 -1.782016,0.70634 -2.331668,0 -0.582966,-0.74918 -0.582966,-2.24754 -1.16574,-2.99671 -0.38877,-0.49945 -3.109021,-0.9989 -3.4976,-1.49836 -0.274827,-0.35316 0.274826,-1.14518 0,-1.49835 -0.777162,-0.99891 -3.886179,0.9989 -4.663339,0 -0.274827,-0.35318 0.274825,-1.14519 0,-1.49836 -0.508392,-0.65341 -1.794321,0.69058 -2.331671,0 -0.274826,-0.35315 0.274826,-1.1452 0,-1.49835 -0.582965,-0.74918 -2.914634,0.74919 -3.497599,0 -0.274638,-0.35317 0.274826,-1.14519 0,-1.49835 -0.777161,-0.99891 -3.885991,0.99891 -4.66334,0 -0.274637,-0.35317 0.274826,-1.14519 0,-1.49836 -0.454259,-0.58381 -3.951857,0 -4.66334,0 -0.711482,0 -4.209081,0.58382 -4.663341,0 -0.274825,-0.35317 0.274826,-1.14519 0,-1.49836 -0.777159,-0.99889 -3.886179,0.9989 -4.663339,0 -0.274826,-0.35316 0.274826,-1.14519 0,-1.49835 -1.367696,-1.7579 -7.861129,0.38529 -9.326679,-1.49835 -0.274827,-0.35318 0.274826,-1.1452 0,-1.49836 -0.549653,-0.70633 -1.782017,0.70633 -2.33167,0 -0.274825,-0.35317 0.274825,-1.14519 0,-1.49836 -0.582965,-0.74917 -1.748706,-0.74917 -2.33167,-1.49835 -0.549652,-0.70634 0.549653,-2.29038 0,-2.99672 -0.582964,-0.74917 -1.748704,-0.74917 -2.33167,-1.498355 -0.454258,-0.583811 0,-5.079047 0,-5.993407 0,-4.184965 -1.01981,-4.569164 2.217347,-6.64934 0.347509,-0.223367 2.171168,-3.485987 2.445993,-3.839157 0.46656,-0.599739 0.915898,-1.172814 2.616149,-2.265446 0.706561,-0.454037 2.724414,-1.601744 3.213121,-2.229617 0.274637,-0.353169 -0.274828,-1.145189 0,-1.498358 0.549463,-0.706324 1.782017,0.706339 2.331668,0 0.274638,-0.353155 -0.274826,-1.145189 0,-1.498344 0.549464,-0.706339 1.879873,0.812836 2.331671,0 1.821009,-3.276673 0.832996,1.965692 2.387317,-1.530479 z"
       transform="matrix(1.1468085,0,0,1.1612147,-11.257963,-22.124114)" /><path
       style="fill:#ffffff;stroke-width:0.0353271"
       d="m 76.462088,58.481451 c 1.782725,1.739895 4.011075,7.539621 5.347958,5.219731 1.337099,-2.319891 -7.509672,-5.92305 -5.347958,-5.219731 3.565449,2.319868 7.130682,4.639762 10.695917,6.959649 0,0.579972 -0.314959,1.329814 0,1.739916 0.315181,0.410079 1.021927,-0.410102 1.337094,0 0.315181,0.410079 -0.315167,1.32979 0,1.739892 1.114179,1.449931 4.233785,0.289999 5.347962,1.739917 1.114179,1.44993 0.222917,5.509722 1.337096,6.959652 0.641629,0.835192 4.519219,2.40135 5.347963,3.479808 0.31496,0.410115 -0.31518,1.329814 0,1.739916 0.31496,0.410115 1.02171,-0.410102 1.33688,0 0.31518,0.410115 -0.31517,1.329814 0,1.739928 0.80248,1.044367 4.92664,3.479809 6.68505,3.479809"
       id="path6"
       sodipodi:nodetypes="csccsssssssssc" /><path
       style="fill:#ffffff;stroke-width:0.030613"
       d="m 71.827243,52.932963 c 1.428042,0.05848 3.157244,1.911353 4.153298,0.842821 0.814699,-0.873981 -0.197656,-2.086098 -1.319527,-2.207303 -0.892427,-0.09642 -2.299595,0.07966 -2.408884,1.111483 -0.109286,1.031807 0.990391,1.580907 1.811481,1.894819 2.305142,0.88128 5.244329,0.879139 6.878147,2.750531 1.034946,1.185437 1.049024,2.92176 2.342764,4.005157 0.820522,0.687118 2.292886,1.072465 2.360983,2.20373 0.08823,1.465711 -1.176381,2.435493 -2.02461,3.443094 -1.114823,1.324285 -3.212976,4.914844 -3.965576,3.33284 -0.614412,-1.291528 1.87798,-0.600536 0.660626,0.324888 -1.561945,1.18738 -3.632838,0.858066 -5.446046,0.668517 -1.449887,-0.151568 -3.355802,-1.443157 -4.356648,-0.382572 -0.803918,0.851902 -2.13454,0.0079 -2.269056,-1.158536 -0.208776,-1.810307 -1.88682,-2.834733 -3.128303,-3.941125 -1.241456,-1.106366 -2.983128,-0.78153 -4.608118,-0.516159 -1.101522,0.179885 -1.967302,-1.139406 -1.41337,-2.19838 0.642935,-1.229126 1.563248,-2.42081 2.81414,-2.934452 1.044412,-0.428858 1.340475,-1.612051 1.954925,-2.580815 0.812213,-1.280561 2.368341,-1.576494 3.620295,-2.26609 1.447826,-0.797484 2.895652,-1.594968 4.343479,-2.392448 z"
       id="path7"
       sodipodi:nodetypes="cssssssssssssccc"
       inkscape:path-effect="#path-effect2"
       inkscape:original-d="m 71.827243,52.932963 c 1.554511,0 4.663342,1.997798 4.663342,0 0,-1.997811 -5.906872,-1.198693 -4.663342,0 2.656277,2.560384 6.356967,2.586656 9.326681,4.495062 0.227318,0.146066 0.912872,2.671595 1.165931,2.996704 0.06246,0.08117 3.434378,2.915517 3.49741,2.996718 0.527315,0.67755 -3.380628,5.16915 -4.663341,5.993421 -6.217661,3.995606 3.497601,-4.495063 -1.165741,1.49834 -0.943911,1.213008 -7.843905,0 -9.32668,0 -0.777348,0 -1.782206,0.70634 -2.331668,0 -0.274826,-0.353154 0.174132,-1.051622 0,-1.49834 -0.78511,-2.017873 -3.310408,-3.625551 -4.663341,-4.495063 -0.970788,-0.623756 -3.923844,0.950421 -4.663529,0 -1.512491,-1.944003 4.65558,-5.98331 4.663529,-5.99342 0.274636,-0.35317 0,-0.998906 0,-1.49836 2.72025,-1.498358 5.4405,-2.996717 8.160749,-4.495062 z"
       transform="matrix(1.1468085,0,0,1.1612147,-11.257963,-22.124114)" /><path
       style="fill:#000000;stroke-width:0.030613"
       d="m 6.5402978,108.3721 c 0.2962184,1.75695 0.2526005,3.52855 0.3064389,5.31369 0.017052,0.56542 0.8942075,1.073 1.1326239,0.44841 0.2779452,-0.72815 0.012608,-1.52736 -0.1896998,-2.24147 -0.3655495,-1.29033 -2.101646,-4.89766 -1.405455,-3.76495 0.3652675,0.5943 0.5592391,1.28054 0.8119005,1.92996 1.3358979,3.43371 0.3393826,10.64711 4.0075307,10.30119 0.426493,-0.0402 1.125105,-0.41557 1.279715,0.22035 0.215543,0.88655 -0.526835,1.76949 -0.198328,2.63407 0.250112,0.65825 1.048102,-0.35057 1.297084,0.21103 0.312227,0.70425 0.01981,1.47811 -0.192551,2.16277 -0.184586,0.59512 0.223536,0.90886 0.894464,0.70313 0.655921,-0.20113 0.627233,0.76373 0.551083,1.18478 -0.129842,0.71793 -0.309844,1.46252 -0.0033,2.19294 0.633732,1.50982 1.92582,2.73582 2.25229,4.34925 0.182232,0.9006 -0.61091,1.86985 -0.137991,2.68336 0.552019,0.94958 2.158214,0.73788 2.502942,1.78088 0.298714,0.90379 -0.507156,1.82229 -0.169053,2.71213 0.25011,0.65825 1.048106,-0.35056 1.297084,0.21103 0.312226,0.70425 0.01981,1.47811 -0.192551,2.16277 -0.184586,0.59512 0.220342,0.89812 0.894463,0.70312 0.692103,-0.20019 0.563314,0.81149 0.491795,1.23979 -0.100994,0.60482 -0.482062,1.35629 -0.01825,1.88708 0.637334,0.72936 2.010697,0.61038 2.348204,1.55757 0.489419,1.37353 0.2864,2.98035 1.020023,4.24047 0.5448,0.93578 2.114123,0.73295 2.477576,1.75296 0.48942,1.37353 0.474436,2.88826 1.020023,4.24046 0.25478,0.63145 1.037812,-0.36309 1.285572,0.19604 0.312084,0.70428 -0.0063,1.47055 -0.192649,2.16276 -0.163506,0.60752 0.373545,0.96742 0.772084,1.30947 0.9551,0.81974 2.329781,1.31625 2.871191,2.45245 0.375553,0.78813 0.44254,1.68368 0.637546,2.52785 0.152291,0.65926 0.01553,1.51585 0.528384,1.96721 1.152409,1.01423 2.641888,1.72205 3.497411,2.99672 0.322553,0.48058 -0.489618,1.83394 0.1861,1.59922 0.478694,-0.16627 0.878192,-0.30459 1.212783,0.33714 0.703909,1.35008 1.019909,2.9827 2.098716,4.05706 0.356251,0.35478 1.342332,-0.53486 1.244242,0.23915 -0.0719,0.56736 -0.268802,1.102 0.313736,1.60327 1.031894,0.88795 2.308001,1.54932 3.105362,2.65264 0.657285,0.9095 0.341641,2.34634 1.219229,3.05684 0.441339,0.35731 1.03126,0.0392 1.443891,-0.18429 0.519902,-0.28161 0.868002,0.17989 1.101772,0.62861 0.691937,1.32817 1.003112,2.93381 2.064187,3.9906 0.356291,0.35485 1.261996,-0.54088 1.244433,0.23916 -0.0096,0.42845 -0.363023,1.78192 0.31949,1.35551 0.49555,-0.3096 0.962639,-0.0121 1.320388,0.37963 1.09293,1.19684 1.745505,2.67813 2.815816,3.92969 0.383401,0.44833 1.186086,-0.43159 1.337311,0.16059 0.147168,0.57628 -0.396875,1.2275 0.26719,1.72519 1.312013,0.9833 2.862576,1.574 4.19761,2.5315 0.613581,0.44007 -0.421277,1.52792 0.211632,1.7199 0.446683,0.13549 0.945772,-0.44426 1.303972,0.25881 0.469515,0.92157 0.343201,2.15797 1.150688,2.87578 0.715903,0.63639 1.871707,0.67974 2.34685,1.6193 0.440136,0.87034 0.268953,2.07444 1.021118,2.72971 1.140728,0.99378 2.651138,1.66507 3.448721,2.95057 0.36845,0.59384 0.100445,1.32684 -0.09667,1.92437 -0.18434,0.5588 0.03229,1.13959 0.550623,1.47213 0.647388,0.41533 1.702606,0.45535 1.962226,1.24086 0.298715,0.90379 -0.503082,1.82075 -0.169053,2.71212 0.247286,0.6599 1.048295,-0.35016 1.292555,0.21345 0.202276,0.46673 -0.432137,1.89547 0.2172,1.52653 0.497851,-0.28287 0.865827,-0.18628 1.173921,0.4051 0.691946,1.32817 0.973503,2.96443 2.064206,3.99063 0.37228,0.35026 1.039127,-0.49966 1.275078,0.21455 0.447305,1.35396 0.148398,2.9966 0.983735,4.15321 0.31301,0.43339 0.783653,0.74151 1.19029,1.08971 0.792704,0.67878 1.914591,1.10025 2.379979,2.03432 0.288741,0.57952 -0.196994,1.18909 0.159431,1.83409 0.586396,1.06117 2.085476,1.57794 2.210973,2.83912 0.04315,0.43364 -0.313908,1.85878 0.29811,1.40557 0.411203,-0.30451 1.232022,-0.15747 0.877399,0.45081 -0.294876,0.50579 -0.176192,1.25635 0.617995,0.92959 0.805419,-0.33138 0.456397,0.76046 0.422219,1.19748 -0.051,0.65218 0.743176,0.55851 1.159645,0.36644 0.422153,-0.1947 0.955896,-0.35902 1.356335,0.10775 0.307098,0.35796 0.848927,1.27315 0.04265,1.34772 -0.288464,0.0267 -1.310213,-0.14647 -0.686374,0.33958 0.562582,0.43833 1.059983,1.14583 1.7699,1.20161 0.463187,0.0364 0.976925,-0.39485 1.296156,0.29507 0.816441,1.76448 0.927175,3.84424 2.003985,5.46455 0.316023,0.47552 0.821787,0.78918 1.247516,1.16333 0.80517,0.70761 1.846883,1.21188 2.432983,2.10663 0.59512,0.90852 0.31208,2.29267 1.16642,2.98446 0.44129,0.35733 1.03976,0.0543 1.44378,-0.18429 0.51756,-0.3057 1.18772,0.20919 0.85979,0.7662 -0.28861,0.4902 -0.0393,1.15841 0.64819,1.02703 0.50465,-0.0964 1.09609,-0.65472 1.54738,-0.27936 0.53917,0.44845 -0.26965,1.1919 0.18183,1.68978 0.42325,0.46675 1.01765,0.0207 1.39203,-0.25082 0.51828,-0.37593 1.21058,0.26443 0.89391,0.81007 -0.34628,0.59666 0.0746,1.13378 0.80367,1.0551 0.79716,-0.086 1.59214,-0.63355 2.37468,-0.38314 0.76162,0.24372 -0.0719,1.16927 0.25142,1.61157 0.38401,0.52527 1.12984,0.21447 1.65456,0.10613 0.56925,-0.11753 1.25028,-0.50791 1.75637,-0.15021 0.57034,0.40311 -0.43081,1.59431 0.17755,1.62948 1.95435,0.11298 3.91539,0.0634 5.87253,0.0558 3.90336,-0.0151 7.80599,-0.0701 11.70988,-0.0359 5.33897,0.0468 10.84813,1.39802 16.01788,0.0617 0.4518,-0.11679 1.66546,0.21131 1.39261,-0.53038 -0.17047,-0.46339 -0.29961,-1.31121 0.43201,-1.30064 0.61638,0.009 1.24243,0.58987 1.83319,0.23517 0.97965,-0.5882 1.79053,-1.50623 2.08897,-2.59108 0.14103,-0.51266 0.63704,-0.66886 1.15914,-0.50147 0.43411,0.13919 1.12443,0.60248 1.41543,0.0958 0.30581,-0.53243 -0.52876,-1.46876 0.27621,-1.70521 0.80806,-0.23736 1.6297,0.14188 2.41857,0.29905 0.60866,0.12126 1.39446,0.46555 1.889,-0.007 0.49393,-0.47212 -0.45803,-1.42142 0.20847,-1.69864 0.63845,-0.26554 1.33431,0.0269 1.95961,0.2009 0.48016,0.1336 1.64195,0.3298 1.48618,-0.41911 -0.0982,-0.47207 -0.39556,-1.35578 0.3508,-1.39772 0.64525,-0.0362 1.28926,0.60172 1.90358,0.23282 0.9796,-0.58825 1.79045,-1.50627 2.08894,-2.59109 0.14105,-0.51263 0.63703,-0.66884 1.15914,-0.50146 0.43405,0.13915 1.11049,0.59427 1.41525,0.0958 0.30942,-0.50606 -0.46274,-1.29396 0.16693,-1.63881 1.02007,-0.55865 2.35096,-0.502 3.23163,-1.26424 0.51095,-0.44224 -0.34696,-1.24771 0.15252,-1.65215 0.44129,-0.35732 1.03117,-0.0392 1.44377,0.1843 0.51992,0.28159 0.86806,-0.17984 1.10186,-0.62862 0.69193,-1.32818 1.14324,-2.80973 2.06424,-3.99061 0.60931,-0.78124 2.10837,-0.60148 2.37393,-1.56951 0.15315,-0.55826 -0.31841,-1.12683 0.18373,-1.68712 0.73174,-0.81648 2.01143,-0.76743 2.69095,-1.66585 0.60205,-0.79599 0.84942,-1.77408 1.40403,-2.61348 0.39289,-0.59464 1.11855,-0.87391 1.5081,-1.45416 0.32263,-0.48057 -0.48398,-1.84931 0.1861,-1.59924 0.44675,0.16673 1.10083,0.39044 1.13684,-0.37743 0.0376,-0.80146 -0.538,-1.59599 -0.24155,-2.37611 0.25015,-0.65827 1.04836,0.35065 1.29725,-0.21104 0.31209,-0.70428 0.0196,-1.47807 -0.19264,-2.16277 -0.18447,-0.595 0.22028,-0.89809 0.89439,-0.70311 0.6921,0.20019 0.56451,-0.81169 0.4918,-1.2398 -0.10389,-0.61163 -0.31822,-1.2622 -0.003,-1.90795 0.3003,-0.61544 1.10545,0.95124 1.12236,0.21407 0.004,-0.15686 -0.0281,-1.00968 -0.0276,-1.44233 0.002,-2.0912 -0.1188,-4.18623 0.004,-6.27369 0.0276,-0.46905 0.53643,-1.64661 -0.39772,-1.36869 -0.74861,0.22273 -0.17151,1.10801 -0.22816,1.66101 -0.0526,0.51375 -0.14289,1.38074 -0.66206,1.39207 -0.43424,0.009 -0.89799,-0.42708 -1.21901,0.23111 -0.68651,1.40755 -1.20002,2.93103 -2.16086,4.17706 -0.64275,0.83352 -1.95001,0.75398 -2.48116,1.72757 -0.48377,0.88674 -0.20214,2.24368 -1.05938,2.81431 -0.74493,0.49588 -1.63461,0.70749 -2.48344,0.95989 -0.51259,0.15242 -1.35763,0.46463 -0.99631,1.13367 0.33195,0.61466 -0.15975,1.02191 -0.6009,1.40054 -0.95512,0.81975 -2.13412,1.43232 -2.87123,2.45251 -0.65401,0.90518 -0.27508,2.42181 -1.20905,3.04352 -0.74492,0.49587 -1.63457,0.70751 -2.48339,0.95989 -0.51257,0.1524 -1.38199,0.4785 -0.99625,1.13368 0.28866,0.49028 0.0393,1.15837 -0.64832,1.02704 -0.50463,-0.0964 -1.14654,-0.70822 -1.54729,-0.27936 -0.61161,0.65449 -0.69047,1.60008 -0.93049,2.4264 -0.13558,0.46676 -0.46442,1.00034 -1.06558,0.88872 -0.54642,-0.10146 -1.14035,-0.51129 -1.69085,-0.15926 -1.55274,0.99295 -2.8786,2.49469 -4.65517,2.98403 -0.75404,0.2077 -1.556,0.0284 -2.26916,-0.22294 -0.56693,-0.19984 -1.59744,0.0842 -1.18323,0.82714 0.34896,0.62585 -0.12044,1.11957 -0.80135,1.17873 -1.75515,0.15249 -3.511,-0.13148 -5.25524,-0.29852 -1.91946,-0.18383 -3.84493,-0.38965 -5.78116,-0.30564 -0.66752,0.029 -1.29518,0.38549 -1.54407,1.03093 -0.2666,0.69138 -0.97109,1.03782 -1.6892,1.04904 -1.88683,0.0295 -3.68535,-0.67688 -5.54778,-0.86941 -0.87356,-0.0903 -1.90727,-0.17682 -2.59943,0.48322 -0.49007,0.46732 0.48877,1.53346 -0.21948,1.6763 -0.98246,0.19815 -1.9915,-0.0144 -2.98058,-0.0671 -1.47308,-0.0785 -2.93986,0.17852 -4.39931,0.34468 -2.60257,0.2963 -5.23892,0.66613 -7.85923,0.33877 -1.06956,-0.13363 -2.05199,-0.61709 -2.90168,-1.28608 -1.29113,-1.01654 -2.20904,-2.34021 -3.33915,-3.55375 -0.48895,-0.52505 -1.19522,-0.46244 -1.86482,-0.36683 -0.66623,0.0951 -1.47468,0.54905 -2.037,0.1128 -0.55298,-0.42899 0.33037,-1.25948 -0.17384,-1.66767 -0.44134,-0.3573 -1.03983,-0.0543 -1.44389,0.18431 -0.51755,0.30571 -1.18754,-0.20927 -0.85965,-0.7662 0.28866,-0.49027 0.0393,-1.15838 -0.64832,-1.02704 -0.50462,0.0964 -1.17073,0.7296 -1.54729,0.27935 -0.35276,-0.42177 -0.55597,-0.95968 -0.80968,-1.44877 -0.54523,-1.05108 -0.80922,-2.30409 -1.63269,-3.15492 -0.59364,-0.61336 -1.51489,-0.65951 -2.3057,-0.82114 -0.77027,-0.15743 -1.73865,-0.0205 -2.295029,-0.60966 -0.451466,-0.47807 0.436799,-1.33924 -0.173328,-1.67455 -0.514429,-0.28272 -1.06757,0.0957 -1.547389,0.27936 -0.575471,0.22032 -0.806791,-0.41762 -1.015578,-0.81892 -0.666298,-1.28067 -0.928052,-2.86863 -1.989651,-3.84688 -0.377484,-0.34785 -0.933112,0.45216 -1.28147,-0.21313 -0.745509,-1.42376 -1.077473,-3.14783 -2.216129,-4.28193 -0.356264,-0.35484 -1.342529,0.53489 -1.244361,-0.23916 0.07196,-0.56738 0.268681,-1.10205 -0.313803,-1.60331 -1.031824,-0.88794 -2.519628,-1.42374 -3.10518,-2.65259 -0.375549,-0.78814 -0.442537,-1.68368 -0.637542,-2.52786 -0.152291,-0.65926 -0.06139,-1.46856 -0.528385,-1.96721 -0.508891,-0.54339 -1.177023,-0.92854 -1.591081,-1.56871 -0.354019,-0.54733 -0.758464,-1.12851 -0.817816,-1.78431 -0.07599,-0.83962 0.482526,-1.68261 0.16399,-2.50015 -0.256011,-0.65707 -1.092406,0.37222 -1.302139,-0.21692 -0.27008,-0.75866 -0.01147,-1.57471 0.07686,-2.34631 0.07511,-0.65616 0.401216,-1.42415 0.02242,-1.99539 -0.58589,-0.88354 -2.128245,-0.69641 -2.465851,-1.71734 -0.298867,-0.90377 0.641867,-1.88598 0.169053,-2.71213 -0.545742,-0.95357 -2.155768,-0.73978 -2.500723,-1.78293 -0.298865,-0.90378 0.506104,-1.82192 0.169053,-2.71213 -0.253471,-0.66945 -1.063516,0.37189 -1.316608,-0.24453 -0.316631,-0.77118 -0.09886,-1.6322 -0.0055,-2.4277 0.123084,-1.04864 0.3981,-2.11461 0.213377,-3.17736 -0.144786,-0.83298 -1.033057,0.15593 -1.307458,-0.28613 -0.368587,-0.59379 -0.124084,-1.33512 0.09654,-1.92437 0.159769,-0.42672 0.0097,-1.55019 -0.596126,-1.10492 -0.619339,0.45519 -0.859169,-0.31821 -0.901598,-0.83173 -0.180479,-2.18433 -0.0093,-4.37852 0.100342,-6.5622 0.169573,-3.37668 0.685106,-6.76055 0.43713,-10.13522 -0.04701,-0.63973 0.192273,-1.48174 -0.302213,-1.91688 -1.152466,-1.01416 -2.836797,-1.61096 -3.497411,-2.9967 -0.375699,-0.78809 -0.442696,-1.68368 -0.637685,-2.52786 -0.152273,-0.65926 -0.109238,-1.42763 -0.528243,-1.96721 -0.622714,-0.80191 -2.088223,-0.64838 -2.416181,-1.64065 -0.298714,-0.90379 0.507287,-1.82234 0.169053,-2.71213 -0.255207,-0.67137 -1.050737,0.37022 -1.322409,-0.25217 -0.414484,-0.94957 -0.400302,-2.01629 -0.476652,-3.03311 -0.09899,-1.3184 -0.254733,-2.62801 -0.421036,-3.94859 -0.09776,-0.77625 -0.884973,-0.0205 -1.244187,-0.31327 -0.446673,-0.36408 -0.281298,-1.05289 -0.230958,-1.5568 0.09149,-0.91583 0.568701,-1.88539 0.233973,-2.75893 -0.20073,-0.52385 -0.754348,-0.80594 -1.163107,-1.16495 -0.830079,-0.72904 -1.901173,-1.25012 -2.508156,-2.1704 -0.597116,-0.90533 -0.121459,-2.65023 -1.168126,-2.97865 -0.440151,-0.13811 -0.914982,0.43701 -1.280488,-0.26269 -0.726018,-1.38985 -0.956349,-3.17524 -2.161747,-4.17806 -0.533512,-0.44385 -1.256274,-0.55918 -1.894317,-0.796 -0.543359,-0.20168 -1.293153,-0.19766 -1.603282,-0.70236 -0.312804,-0.50905 0.527565,-1.46503 -0.207137,-1.65349 -0.746619,-0.19152 -1.535303,0.0117 -2.211256,0.31359 -0.62955,0.28116 -1.47982,-0.16185 -1.079017,-0.90762 0.400807,-0.74578 -0.39777,-1.01381 -1.079023,-0.90762 -0.731512,0.11403 -1.524643,0.66368 -2.211391,0.31359 -0.675834,-0.34453 0.304438,-1.34476 -0.207185,-1.65351 -0.474847,-0.28656 -1.081237,-0.19282 -1.611749,-0.15323 -1.439639,0.10744 -2.871044,0.32099 -4.31379,0.37217 -0.702059,0.0249 -1.538624,0.30622 -2.115796,-0.12273 -0.562992,-0.4184 0.371425,-1.31286 -0.195167,-1.67213 -0.72903,-0.46227 -1.627793,-0.5231 -2.461809,-0.65421 -1.410022,-0.22167 -2.87374,-0.20982 -4.233366,-0.66089 -0.842405,-0.27949 -0.794425,-1.61992 -1.711812,-1.72541 -1.25989,-0.14487 -2.455858,0.43367 -3.719755,0.42085 -0.939115,-0.01 -0.472662,-0.96608 -0.543283,-1.55868 -0.07534,-0.63218 -0.85718,-0.44714 -1.244337,-0.23916 -0.387158,0.20799 -1.29742,0.39527 -1.244337,-0.23915 0.04425,-0.52887 0.40698,-1.25992 -0.299882,-1.54607 -1.20166,-0.48645 -2.540958,-0.35722 -3.796257,-0.59737 -0.588125,-0.11251 -1.474548,-0.0741 -1.696868,-0.68527 -0.185817,-0.51078 0.53933,-1.4922 -0.246807,-1.60111 -0.999622,-0.13849 -2.049682,0.85115 -2.935402,0.36277 -0.500481,-0.27596 -0.727037,-0.87899 -1.019815,-1.35385 C 9.7634558,114.68 8.2602314,111.4656 6.5402978,108.3721 Z"
       id="path8"
       sodipodi:nodetypes="csccsssssssssssssssssssssssssssssssssssssssssssssssssssssssssssssssssssssssssssssssssssssssssssssssssssssssssssssssssssssssssssssssssssssssssssssssssssssssssssssssssssssssssssssssssssssssssssssssssssc"
       inkscape:path-effect="#path-effect4"
       inkscape:original-d="m 6.5402978,108.3721 c 0.3885801,1.99781 -0.388579,6.49287 1.1659304,5.99342 1.5543206,-0.49946 -2.127254,-7.64086 -1.1659304,-5.99342 1.5545105,3.9956 3.10902,7.99122 4.6633392,11.98683 0.388581,0 0.891105,-0.35316 1.16593,0 0.549463,0.70633 -0.549652,2.29038 0,2.99671 0.274826,0.35317 0.890915,-0.35315 1.165741,0 0.549653,0.70634 -0.549463,2.29037 0,2.99672 0.274826,0.35316 0.891103,-0.35317 1.16593,0 0.549463,0.70632 -0.347698,2.10326 0,2.9967 0.678926,1.74539 1.652552,2.74968 2.331669,4.49506 0.347507,0.89346 -0.549652,2.29038 0,2.99673 0.582965,0.74917 1.748706,0.74917 2.33167,1.49835 0.549463,0.70633 -0.549653,2.29038 0,2.99671 0.274826,0.35316 0.891104,-0.35318 1.165741,0 0.549651,0.70633 -0.549463,2.29037 0,2.99671 0.274825,0.35316 0.891103,-0.35316 1.165929,0 0.549653,0.70632 -0.549652,2.29038 0,2.9967 0.582964,0.74919 1.748705,0.74919 2.33167,1.49836 0.388581,0.49946 0.77716,3.99561 1.165741,4.49507 0.582964,0.74917 1.748893,0.74917 2.331858,1.49836 0.38858,0.49945 0.777162,3.99561 1.165741,4.49506 0.274827,0.35317 0.891102,-0.35318 1.16593,0 0.549463,0.70632 -0.549653,2.29037 0,2.99671 0.06246,0.0812 3.434192,2.91551 3.497409,2.99671 0.388581,0.49945 0.777161,3.9956 1.16593,4.49506 0.06246,0.0812 3.434193,2.91552 3.497411,2.99672 0.274826,0.35316 -0.274827,1.14519 0,1.49834 0.274826,0.35317 0.891102,-0.35315 1.165928,0 0.06246,0.0812 2.268454,4.41388 2.331671,4.49508 0.274826,0.35315 0.890913,-0.35317 1.16574,0 0.274826,0.35315 -0.274827,1.14519 0,1.49835 0.06246,0.0811 3.434382,2.91551 3.4976,2.99671 0.582965,0.74919 0.582965,2.24752 1.16574,2.9967 0.549653,0.70634 1.782207,-0.70632 2.33167,0 0.06246,0.0812 2.268642,4.41388 2.331669,4.49506 0.274826,0.35318 0.891104,-0.35315 1.165931,0 0.274826,0.35318 -0.274827,1.14521 0,1.49836 0.274826,0.35317 0.818232,-0.22334 1.16574,0 1.399116,0.89902 2.098673,3.59605 3.497599,4.49507 0.347508,0.22337 0.891103,-0.35316 1.165929,0 0.274637,0.35316 -0.274826,1.14518 0,1.49836 0.67571,0.86845 3.987631,2.12826 4.66334,2.99671 0.274636,0.35316 -0.274827,1.1452 0,1.49835 0.274636,0.35317 0.890914,-0.35315 1.165741,0 0.582963,0.74918 0.582963,2.24754 1.165929,2.99672 0.582777,0.74917 1.748705,0.74917 2.331671,1.49836 0.582774,0.74916 0.582774,2.24752 1.16574,2.9967 0.06246,0.0812 3.434381,2.91552 3.497599,2.99671 0.549462,0.70633 -0.549653,2.29037 0,2.99671 0.582775,0.74918 1.748705,0.74918 2.33167,1.49835 0.549463,0.70634 -0.549653,2.29038 0,2.99672 0.274826,0.35316 0.890914,-0.35318 1.165741,0 0.274826,0.35316 -0.274827,1.14518 0,1.49835 0.274826,0.35317 0.891102,-0.35317 1.165928,0 0.06246,0.0811 2.268454,4.41388 2.33167,4.49506 0.274826,0.35318 0.891104,-0.35317 1.165741,0 0.38877,0.49945 0.777351,3.99561 1.165931,4.49506 0.06246,0.0811 3.434378,2.91552 3.49741,2.99673 0.274833,0.35316 -0.174136,1.05162 0,1.49835 0.491541,1.26352 1.84012,1.73318 2.331672,2.99671 0.174136,0.44672 -0.274639,1.14518 0,1.49835 0.274821,0.35318 0.891106,-0.35317 1.165927,0 0.274833,0.35318 -0.274821,1.1452 0,1.49836 0.274833,0.35316 0.891106,-0.35316 1.165745,0 0.274821,0.35316 -0.274639,1.14517 0,1.49834 0.549654,0.70634 1.7822,-0.70632 2.331854,0 2.412113,3.10017 -3.686115,-0.12117 1.165745,2.99672 0.347508,0.22335 0.891105,-0.35316 1.165927,0 0.675707,0.86844 1.655964,5.12498 2.331671,5.99343 0.06251,0.0812 3.434184,2.91551 3.497404,2.9967 0.58297,0.74918 0.58297,2.24754 1.16593,2.9967 0.54947,0.70634 1.78201,-0.70632 2.33167,0 0.27483,0.35319 -0.27482,1.14521 0,1.49836 0.54947,0.70634 1.78202,-0.70633 2.33167,0 0.27483,0.35317 -0.27482,1.14519 0,1.49835 0.75634,0.97209 1.58025,-0.96562 2.33167,0 0.27483,0.35318 -0.27482,1.1452 0,1.49837 0.58296,0.74918 2.91464,-0.74918 3.49741,0 0.27483,0.35315 -0.27483,1.14519 0,1.49835 0.58297,0.74918 2.91464,-0.74917 3.49761,0 0.27482,0.35316 -0.27484,1.14519 0,1.49835 0.14,0.18074 12.63499,0 13.99002,0 2.0485,0 20.7577,0.29218 20.98502,0 0.27482,-0.35316 -0.27464,-1.14519 0,-1.49835 0.54965,-0.70634 1.63664,0.44671 2.33166,0 1.70044,-1.09262 1.86512,-2.39695 2.33168,-2.99672 0.54966,-0.70632 1.7822,0.70635 2.33186,0 0.27464,-0.35316 -0.27482,-1.14518 0,-1.49835 0.77715,-0.9989 3.88599,0.99891 4.66334,0 0.27464,-0.35315 -0.27482,-1.14517 0,-1.49836 0.58277,-0.74916 2.91445,0.7492 3.49741,0 0.27482,-0.35315 -0.27484,-1.14517 0,-1.49834 0.54964,-0.70633 1.63647,0.44672 2.33167,0 1.70025,-1.09263 1.86511,-2.39697 2.33167,-2.99672 0.54964,-0.70632 1.7822,0.70634 2.33166,0 0.27482,-0.35316 -0.27482,-1.14519 0,-1.49834 0.38859,-0.49945 3.10903,-0.99891 3.49761,-1.49836 0.27482,-0.35317 -0.27483,-1.1452 0,-1.49836 0.54946,-0.70633 1.78201,0.70634 2.33166,0 0.0624,-0.0812 2.26846,-4.41387 2.33168,-4.49507 0.58296,-0.74917 1.7487,-0.74917 2.33166,-1.49836 0.27483,-0.35317 -0.27482,-1.14518 0,-1.49834 1.19773,-1.53937 2.52701,-0.50223 3.49742,-2.99671 0.85021,-2.18524 1.86511,-2.39697 2.33166,-2.99671 0.27483,-0.35317 -0.27463,-1.14519 0,-1.49835 0.27483,-0.35318 0.89111,0.35316 1.16593,0 0.54965,-0.70635 -0.54964,-2.29038 0,-2.99673 0.27483,-0.35316 0.8911,0.35317 1.16593,0 0.54947,-0.70632 -0.54965,-2.29038 0,-2.9967 0.27463,-0.35316 0.89091,0.35317 1.16574,0 0.54967,-0.70634 -0.54965,-2.29038 0,-2.99672 1.55452,-1.9978 1.16594,2.49727 1.16594,-1.49834 v -5.99343 c 0,-0.49945 0.38858,-1.49835 0,-1.49835 -1.72524,0 0.25211,1.17434 -1.16594,2.9967 -0.27483,0.35317 -0.89111,-0.35315 -1.16574,0 -0.20725,0.2662 -1.50397,3.43113 -2.33186,4.49508 -0.61438,0.78969 -1.71709,0.70865 -2.33166,1.49834 -0.58277,0.74918 -0.58277,2.24755 -1.16576,2.99672 -0.38857,0.49946 -3.10881,0.99891 -3.49758,1.49836 -0.27464,0.35316 0.27482,1.14518 0,1.49834 -0.0624,0.0811 -3.4342,2.91552 -3.49742,2.99673 -0.58296,0.74917 -0.58296,2.24751 -1.16593,2.9967 -0.38857,0.49945 -3.10882,0.99891 -3.4974,1.49836 -0.27482,0.35317 0.27483,1.14518 0,1.49835 -0.54964,0.70633 -1.78221,-0.70633 -2.33167,0 -0.58296,0.74919 -0.58296,2.24753 -1.16593,2.9967 -0.54946,0.70634 -1.63646,-0.44672 -2.33167,0 -1.68322,1.08167 -2.98013,1.91507 -4.66335,2.99672 -0.70391,0.45234 -2.95854,-0.69264 -3.49741,0 -0.27482,0.35316 0.27465,1.14519 0,1.49834 -0.97986,1.25913 -10.96408,-1.19541 -12.82428,0 -0.49154,0.31589 -0.67438,1.1825 -1.16592,1.49837 -1.966,1.26338 -7.83218,-1.92066 -9.32668,0 -0.27482,0.35316 0.27482,1.14519 0,1.49836 -0.30852,0.39661 -3.01741,0 -3.49742,0 -3.39065,0 -11.02332,1.9065 -13.9902,0 -2.43426,-1.56433 -2.22889,-2.93075 -4.66333,-4.49507 -0.70392,-0.45233 -2.95856,0.69263 -3.49742,0 -0.27483,-0.35316 0.27482,-1.14518 0,-1.49836 -0.54965,-0.70632 -1.7822,0.70635 -2.33167,0 -0.27482,-0.35316 0.27483,-1.14518 0,-1.49836 -0.54964,-0.70632 -1.78221,0.70634 -2.33167,0 -0.0625,-0.0812 -2.26864,-4.41386 -2.33167,-4.49505 -0.76429,-0.9823 -4.07924,-0.74769 -4.663327,-1.49836 -0.27484,-0.35316 0.274617,-1.1452 0,-1.49835 -0.54966,-0.70634 -1.782216,0.70633 -2.331677,0 -0.06251,-0.0811 -2.268639,-4.41387 -2.331671,-4.49508 -0.274822,-0.35316 -0.891106,0.35317 -1.165927,0 -0.06251,-0.0812 -2.268458,-4.41386 -2.331672,-4.49506 -0.274822,-0.35317 -0.891106,0.35318 -1.165927,0 -0.274639,-0.35317 0.274821,-1.14519 0,-1.49836 -0.06251,-0.0812 -3.434191,-2.91551 -3.497417,-2.9967 -0.388578,-0.49946 -0.777156,-3.99561 -1.165927,-4.49507 -0.46656,-0.59975 -1.481449,-0.81148 -2.331669,-2.99671 -0.347507,-0.89345 0.549651,-2.29038 0,-2.9967 -0.274637,-0.35318 -0.890915,0.35315 -1.165741,0 -0.582964,-0.74919 0.582966,-3.7459 0,-4.49506 -0.582964,-0.74919 -1.748706,-0.74919 -2.331672,-1.49836 -0.549652,-0.70635 0.549464,-2.29039 0,-2.99672 -0.582964,-0.74916 -1.748704,-0.74916 -2.33167,-1.49835 -0.549652,-0.70633 0.549464,-2.29038 0,-2.99671 -0.274826,-0.35318 -0.891102,0.35317 -1.165928,0 -0.777162,-0.99891 0.777349,-4.99452 0,-5.99343 -0.274827,-0.35315 -0.890915,0.35317 -1.165741,0 -0.549653,-0.70632 0.549463,-2.29038 0,-2.9967 -0.274827,-0.35316 -0.891104,0.35316 -1.16593,0 -1.078485,-1.38614 1.078484,-18.09248 0,-19.47862 -0.06246,-0.0811 -3.434382,-2.91552 -3.497411,-2.9967 -0.388769,-0.49946 -0.777348,-3.99562 -1.165928,-4.49507 -0.582966,-0.74919 -1.748706,-0.74919 -2.331671,-1.49836 -0.549463,-0.70633 0.549653,-2.29038 0,-2.99671 -0.274826,-0.35318 -0.891103,0.35317 -1.16574,0 -0.807822,-1.03814 -0.358107,-6.45363 -1.165929,-7.49176 -0.274827,-0.35318 -0.891105,0.35315 -1.165741,0 -0.582964,-0.74919 0.582776,-3.7459 0,-4.49509 -0.06246,-0.0812 -3.434381,-2.91551 -3.497598,-2.9967 -0.582965,-0.74918 -0.582965,-2.24754 -1.165742,-2.99671 -0.274826,-0.35316 -0.891103,0.35316 -1.165929,0 -0.06246,-0.0812 -2.268453,-4.41387 -2.331671,-4.49507 -0.388579,-0.49945 -3.10883,-0.9989 -3.497599,-1.49836 -0.274637,-0.35315 0.274826,-1.14518 0,-1.49834 -0.582775,-0.74918 -2.914445,0.74918 -3.497409,0 -0.274827,-0.35317 0.274825,-1.14519 0,-1.49836 -0.582965,-0.74918 -2.914636,0.74918 -3.4976,0 -0.274826,-0.35317 0.274827,-1.14518 0,-1.49836 -0.308517,-0.39662 -3.01741,0 -3.49741,0 -0.711483,0 -4.209082,0.58383 -4.663339,0 -0.274827,-0.35317 0.274635,-1.14519 0,-1.49836 -0.662839,-0.85191 -6.067756,-0.9024 -6.99501,-1.49834 -0.491735,-0.31589 -0.674384,-1.18247 -1.16593,-1.49836 -0.970599,-0.62375 -3.923846,0.95042 -4.66334,0 -0.274825,-0.35317 0.274825,-1.14519 0,-1.49836 -0.549654,-0.70633 -1.782017,0.70634 -2.33167,0 -0.274826,-0.35315 0.274827,-1.14519 0,-1.49835 -0.807823,-1.03815 -5.021446,-0.46021 -5.829269,-1.49836 -0.274638,-0.35316 0.274826,-1.14518 0,-1.49835 -0.555709,-0.71428 -2.990723,0.75984 -3.497411,0 -2.175707,-3.26212 -3.8861802,-6.99233 -5.8292692,-10.48848 z"
       transform="matrix(1.1468085,0,0,1.1612147,-11.257963,-22.124114)" /></g></svg>
