<?xml version="1.0" encoding="UTF-8" standalone="no"?>
<!-- Created with Inkscape (http://www.inkscape.org/) -->

<svg
   width="250px"
   height="160px"
   viewBox="0 0 250 160"
   version="1.1"
   id="SVGRoot"
   inkscape:version="1.4 (e7c3feb1, 2024-10-09)"
   sodipodi:docname="logo.svg"
   xml:space="preserve"
   xmlns:inkscape="http://www.inkscape.org/namespaces/inkscape"
   xmlns:sodipodi="http://sodipodi.sourceforge.net/DTD/sodipodi-0.dtd"
   xmlns="http://www.w3.org/2000/svg"
   xmlns:svg="http://www.w3.org/2000/svg"
   xmlns:rdf="http://www.w3.org/1999/02/22-rdf-syntax-ns#"
   xmlns:cc="http://creativecommons.org/ns#"
   xmlns:dc="http://purl.org/dc/elements/1.1/"><sodipodi:namedview
     id="base"
     pagecolor="#ffffff"
     bordercolor="#666666"
     borderopacity="1.0"
     inkscape:pageopacity="0.0"
     inkscape:pageshadow="2"
     inkscape:zoom="1.6098825"
     inkscape:cx="130.13372"
     inkscape:cy="85.099379"
     inkscape:document-units="px"
     inkscape:current-layer="layer1"
     showgrid="false"
     inkscape:window-width="1200"
     inkscape:window-height="713"
     inkscape:window-x="64"
     inkscape:window-y="110"
     inkscape:window-maximized="0"
     inkscape:showpageshadow="2"
     inkscape:pagecheckerboard="0"
     inkscape:deskcolor="#d1d1d1" /><defs
     id="defs1958"><inkscape:path-effect
       effect="simplify"
       id="path-effect68"
       is_visible="true"
       lpeversion="1.3"
       threshold="53.623059"
       steps="1"
       smooth_angles="360"
       helper_size="10"
       simplify_individual_paths="false"
       simplify_just_coalesce="false" /><inkscape:path-effect
       effect="simplify"
       id="path-effect67"
       is_visible="true"
       lpeversion="1.3"
       threshold="24.020757"
       steps="13.572368"
       smooth_angles="360"
       helper_size="4.1447368"
       simplify_individual_paths="false"
       simplify_just_coalesce="false" /><inkscape:perspective
       sodipodi:type="inkscape:persp3d"
       inkscape:vp_x="59.829415 : -479.15376 : 1"
       inkscape:vp_y="0 : 844.94297 : 0"
       inkscape:vp_z="179.46776 : -479.15376 : 1"
       inkscape:persp3d-origin="119.64859 : -501.68557 : 1"
       id="perspective8" /></defs><metadata
     id="metadata1961"><rdf:RDF><cc:Work
         rdf:about=""><dc:format>image/svg+xml</dc:format><dc:type
           rdf:resource="http://purl.org/dc/dcmitype/StillImage" /><dc:title /></cc:Work></rdf:RDF></metadata><g
     id="layer1"
     inkscape:groupmode="layer"
     inkscape:label="Layer 1"><g
       id="g182"
       transform="matrix(1.8597339,0,0,-2.0998516,115.50611,114.13586)"
       style="stroke-width:0.6747129" /><g
       id="g186"
       transform="matrix(1.8597339,0,0,-2.0998516,77.053693,91.082641)"
       style="stroke-width:0.6747129" /><g
       id="g194"
       transform="matrix(1.8597339,0,0,-2.0998516,149.2337,91.082641)"
       style="stroke-width:0.6747129" /><path
       style="fill:#ffffff"
       d="m 121.85706,69.632605 c -0.48356,0.644747 -2.09543,1.45068 -1.45068,1.934239 0.64475,0.48356 1.8111,-2.655087 1.45068,-1.934239 -0.68005,1.360094 -1.67932,2.539207 -2.4178,3.868478 -0.0783,0.140903 0.11398,0.369584 0,0.48356 -0.11398,0.113976 -0.36958,-0.113976 -0.48356,0 -0.16119,0.161187 -0.32237,1.289493 -0.48356,1.450679 -0.11397,0.113977 -0.36958,-0.113976 -0.48356,0 -1.28682,1.286825 2.58046,0.860153 2.90136,0.96712 0.65216,0.217388 3.16666,1.66894 3.86848,0.967119 0.40192,-0.401919 -0.89176,-0.891759 -0.96712,-0.967119 -0.22795,-0.227952 0.22795,-0.739167 0,-0.96712 -0.11398,-0.113976 -0.36958,0.113977 -0.48356,0 -0.16119,-0.161186 -0.32237,-1.289492 -0.48356,-1.450679 -0.24178,-0.24178 -0.72534,-0.24178 -0.96712,-0.48356 -0.11398,-0.113976 0,-0.322373 0,-0.483559 0,-1.128307 0,-2.256613 0,-3.384919 z"
       id="path4" /><path
       style="fill:#0000ff"
       d="m 72.533964,25.628667 3.868478,5.802717"
       id="path7" /><rect
       style="fill:#0000ff;fill-opacity:1"
       id="rect64"
       width="57.768192"
       height="121.74802"
       x="-1.8634896"
       y="40.99678" /><rect
       style="fill:#ffcc00;fill-opacity:1"
       id="rect65"
       width="50.314232"
       height="110.56708"
       x="45.344925"
       y="-1.2423265" /></g></svg>
